<?xml version="1.0" encoding="UTF-8" standalone="no"?>
<svg width="221px" height="19px" viewBox="0 0 221 19" version="1.1" xmlns="http://www.w3.org/2000/svg" xmlns:xlink="http://www.w3.org/1999/xlink" xmlns:sketch="http://www.bohemiancoding.com/sketch/ns">
    <!-- Generator: Sketch 3.4.1 (15681) - http://www.bohemiancoding.com/sketch -->
    <title>homefinder</title>
    <desc>Created with Sketch.</desc>
    <defs>
        <path id="path-1" d="M0,0.396039604 L99.0138614,0.396039604 L99.0138614,18.8118812 L0,18.8118812"></path>
        <path id="path-3" d="M0,0.396039604 L99.0138614,0.396039604 L99.0138614,18.8118812 L0,18.8118812 L0,0.396039604 Z"></path>
    </defs>
    <g id="Page-1" stroke="none" stroke-width="1" fill="none" fill-rule="evenodd" sketch:type="MSPage">
        <g id="homefinder" sketch:type="MSLayerGroup">
            <g id="import-logo">
                <g id="Group-3">
                    <mask id="mask-2" sketch:name="Clip 2" fill="white">
                        <use xlink:href="#path-1"></use>
                    </mask>
                    <g id="Clip-2"></g>
                    <path d="M93.6658416,12.0793069 C95.05,12.0793069 96.0410891,10.9921782 96.0410891,9.50306931 C96.0410891,8.01891089 95.05,6.92683168 93.6658416,6.92683168 C92.2816832,6.92683168 91.2905941,8.0149505 91.2905941,9.50306931 C91.3866337,10.9882178 92.3777228,12.0793069 93.6658416,12.0793069 M93.6658416,4.25554455 C96.6351485,4.25554455 99.0143564,6.53475248 99.0143564,9.50306931 C99.0143564,12.4723762 96.7351485,14.7515842 93.6658416,14.7515842 C90.6965347,14.7515842 88.3173267,12.5723762 88.3173267,9.50306931 C88.3173267,6.43376238 90.6925743,4.25554455 93.6658416,4.25554455" id="Fill-1" fill="#FFFFFF" sketch:type="MSShapeGroup" mask="url(#mask-2)"></path>
                </g>
                <path d="M44.6520792,12.0793069 C46.0362376,12.0793069 47.0273267,10.9921782 47.0273267,9.50306931 C47.0273267,8.01891089 46.0362376,6.92683168 44.6520792,6.92683168 C43.2679208,6.92683168 42.2768317,8.0149505 42.2768317,9.50306931 C42.2768317,10.9882178 43.2679208,12.0793069 44.6520792,12.0793069 M44.6520792,4.25554455 C47.6213861,4.25554455 50.0005941,6.53475248 50.0005941,9.50306931 C50.0005941,12.4723762 47.7213861,14.7515842 44.6520792,14.7515842 C41.6827723,14.7515842 39.3035644,12.5723762 39.3035644,9.50306931 C39.3035644,6.43376238 41.5827723,4.25554455 44.6520792,4.25554455" id="Fill-4" fill="#FFFFFF" sketch:type="MSShapeGroup"></path>
                <path d="M75.939505,11.1887129 C76.9305941,11.1887129 77.7206931,11.9788119 77.7206931,12.969901 C77.7206931,13.9609901 76.9305941,14.7510891 75.939505,14.7510891 C74.9484158,14.7510891 74.1583168,13.9609901 74.1583168,12.969901 C74.1583168,12.079802 74.9523762,11.1887129 75.939505,11.1887129" id="Fill-6" fill="#FFFFFF" sketch:type="MSShapeGroup"></path>
                <mask id="mask-4" sketch:name="Clip 9" fill="white">
                    <use xlink:href="#path-3"></use>
                </mask>
                <g id="Clip-9"></g>
                <path d="M0,4.65247525 L2.96930693,4.65247525 L2.96930693,14.7514851 L0,14.7514851 L0,4.65247525 Z M0,0.396039604 L2.96930693,0.396039604 L2.96930693,3.16831683 L0,3.16831683 L0,0.396039604 Z" id="Fill-8" fill="#FFFFFF" sketch:type="MSShapeGroup" mask="url(#mask-4)"></path>
                <path d="M82.5762376,4.65247525 L85.5455446,4.65247525 L85.5455446,14.7514851 L82.5762376,14.7514851 L82.5762376,4.65247525 Z M82.5762376,0.396039604 L85.5455446,0.396039604 L85.5455446,3.16831683 L82.5762376,3.16831683 L82.5762376,0.396039604 Z" id="Fill-10" fill="#FFFFFF" sketch:type="MSShapeGroup" mask="url(#mask-4)"></path>
                <path d="M31.1870297,12.4722772 C32.5711881,12.4722772 33.5622772,11.3851485 33.5622772,9.8 C33.5622772,8.21485149 32.5711881,7.12772277 31.1870297,7.12772277 C29.8028713,7.12772277 28.8117822,8.21485149 28.8117822,9.8 C28.8117822,11.3851485 29.8028713,12.4722772 31.1870297,12.4722772 M31.4840594,15.0485149 C30.3969307,15.0485149 29.4058416,14.650495 28.9078218,14.1574257 L28.9078218,18.8118812 L25.9385149,18.8118812 L25.9385149,4.85346535 L28.8117822,4.85346535 L28.8117822,5.54752475 C29.3048515,5.05445545 30.2959406,4.55643564 31.4840594,4.55643564 C34.2563366,4.55643564 36.5355446,6.53861386 36.5355446,9.8049505 C36.4355446,13.070297 34.2563366,15.0485149 31.4840594,15.0485149" id="Fill-11" fill="#FFFFFF" sketch:type="MSShapeGroup" mask="url(#mask-4)"></path>
                <path d="M55.7418812,14.7513861 L52.7725743,14.7513861 L52.7725743,4.65237624 L58.5141584,4.65237624 L58.5141584,7.32465347 L55.6418812,7.32465347 L55.7418812,14.7513861 Z" id="Fill-12" fill="#FFFFFF" sketch:type="MSShapeGroup" mask="url(#mask-4)"></path>
                <path d="M63.6619802,14.7513861 L63.6619802,7.42465347 L61.9768317,7.42465347 L61.9768317,4.75336634 L63.6619802,4.75336634 L63.6619802,1.88009901 L66.8312871,1.88009901 L66.8312871,4.65237624 L69.5035644,4.65237624 L69.5035644,7.32465347 L66.6312871,7.32465347 L66.6312871,11.9791089 L69.4035644,11.9791089 L69.4035644,14.6513861 L63.6619802,14.7513861 Z" id="Fill-13" fill="#FFFFFF" sketch:type="MSShapeGroup" mask="url(#mask-4)"></path>
                <path d="M22.0793069,14.7513861 L19.11,14.7513861 L19.11,7.42465347 L15.8446535,7.42465347 L15.8446535,14.7513861 L12.8753465,14.7513861 L12.8753465,7.42465347 L9.6050495,7.42465347 L9.6050495,14.7513861 L6.63673267,14.7513861 L6.63673267,4.65237624 L21.9832673,4.65237624 L22.0793069,14.7513861 Z" id="Fill-14" fill="#FFFFFF" sketch:type="MSShapeGroup" mask="url(#mask-4)"></path>
            </g>
            <path d="M117.6799,15.75 L120.7731,15.75 L120.7731,1.09910027 L117.6799,1.09910027 L117.6799,6.84660016 L111.5353,6.84660016 L111.5353,1.09910027 L108.4212,1.09910027 L108.4212,15.75 L111.5353,15.75 L111.5353,9.68900011 L117.6799,9.68900011 L117.6799,15.75 Z M122.9258,10.6295001 C122.9258,13.7018 125.2666,15.9799 128.3389,15.9799 C131.4112,15.9799 133.752,13.7018 133.752,10.6295001 C133.752,7.55720015 131.4112,5.25820019 128.3389,5.25820019 C125.2666,5.25820019 122.9258,7.55720015 122.9258,10.6295001 L122.9258,10.6295001 Z M125.9563,10.6295001 C125.9563,9.12470012 126.9595,8.03790014 128.3389,8.03790014 C129.7183,8.03790014 130.7215,9.12470012 130.7215,10.6295001 C130.7215,12.1343001 129.7183,13.2211 128.3389,13.2211 C126.9595,13.2211 125.9563,12.1343001 125.9563,10.6295001 L125.9563,10.6295001 Z M138.767999,10.5041001 C138.767999,8.93660012 139.374099,8.01700014 140.544499,8.01700014 C141.610399,8.01700014 142.111999,8.81120013 142.111999,9.91890011 L142.111999,15.75 L145.079799,15.75 L145.079799,10.2951001 C145.079799,8.87390013 145.727699,8.01700014 146.856299,8.01700014 C147.922199,8.01700014 148.423799,8.81120013 148.423799,9.91890011 L148.423799,15.75 L151.391599,15.75 L151.391599,9.79350011 C151.391599,6.88840016 149.844999,5.25820019 147.107099,5.25820019 C145.853099,5.25820019 144.745399,5.78070018 144.034799,6.49130017 C143.345099,5.69710018 142.341899,5.25820019 141.192399,5.25820019 C140.147399,5.25820019 139.290499,5.67620018 138.726199,6.21960017 L138.726199,5.50900019 L135.800199,5.50900019 L135.800199,15.75 L138.767999,15.75 L138.767999,10.5041001 Z M163.158299,11.3819001 C163.158299,11.3819001 163.179199,10.8594001 163.179199,10.5041001 C163.179199,7.91250014 161.548999,5.25820019 158.246799,5.25820019 C155.278999,5.25820019 153.209899,7.59900015 153.209899,10.6922001 C153.209899,13.9108 155.529799,15.9799 158.602099,15.9799 C160.796599,15.9799 162.092399,15.0394 162.991099,13.9108 L161.026499,12.0716001 C160.399499,12.8658001 159.584399,13.2629 158.518499,13.2629 C157.201799,13.2629 156.386699,12.4478001 156.219499,11.3819001 L163.158299,11.3819001 Z M158.309499,7.87070014 C159.291799,7.87070014 159.981499,8.53950013 160.044199,9.39640012 L156.365799,9.39640012 C156.553899,8.56040013 157.201799,7.87070014 158.309499,7.87070014 L158.309499,7.87070014 Z M172.249799,15.75 L175.238499,15.75 L175.238499,5.50900019 L168.445999,5.50900019 L168.445999,5.38360019 C168.445999,4.35950021 168.947599,3.89970022 170.285199,3.89970022 L170.535999,3.89970022 L170.535999,1.09910027 C170.535999,1.09910027 170.494199,1.07820027 170.013499,1.07820027 C167.359199,1.07820027 165.499099,2.37400024 165.499099,5.21640019 L165.499099,5.50900019 L164.161499,5.50900019 L164.161499,8.24690014 L165.499099,8.24690014 L165.499099,15.75 L168.445999,15.75 L168.445999,8.24690014 L172.249799,8.24690014 L172.249799,15.75 Z M172.019899,2.60390024 C172.019899,3.54440022 172.772299,4.31770021 173.733699,4.31770021 C174.695099,4.31770021 175.468399,3.54440022 175.468399,2.60390024 C175.468399,1.64250026 174.695099,0.869200272 173.733699,0.869200272 C172.772299,0.869200272 172.019899,1.64250026 172.019899,2.60390024 L172.019899,2.60390024 Z M180.839699,10.6295001 C180.839699,9.06200012 181.320399,8.01700014 182.720699,8.01700014 C183.911999,8.01700014 184.413599,8.93660012 184.413599,10.0234001 L184.413599,15.75 L187.402299,15.75 L187.402299,9.79350011 C187.402299,6.88840016 185.730299,5.25820019 183.222299,5.25820019 C182.177299,5.25820019 181.362199,5.67620018 180.797899,6.21960017 L180.797899,5.50900019 L177.871899,5.50900019 L177.871899,15.75 L180.839699,15.75 L180.839699,10.6295001 Z M189.178799,10.6295001 C189.178799,13.9317 191.477798,15.9799 194.299298,15.9799 C195.448798,15.9799 196.431098,15.541 196.974498,15.0185 L196.974498,15.75 L199.900498,15.75 L199.900498,1.09910027 L196.932698,1.09910027 L196.932698,6.15690018 C196.410198,5.69710018 195.469698,5.25820019 194.299298,5.25820019 C191.477798,5.25820019 189.178799,7.39000015 189.178799,10.6295001 L189.178799,10.6295001 Z M196.974498,10.6295001 C196.974498,12.2179001 195.950398,13.3047 194.591898,13.3047 C193.233398,13.3047 192.209298,12.2179001 192.209298,10.6295001 C192.209298,9.04110012 193.233398,7.95430014 194.591898,7.95430014 C195.950398,7.95430014 196.974498,9.04110012 196.974498,10.6295001 L196.974498,10.6295001 Z M211.897098,11.3819001 C211.897098,11.3819001 211.917998,10.8594001 211.917998,10.5041001 C211.917998,7.91250014 210.287798,5.25820019 206.985598,5.25820019 C204.017798,5.25820019 201.948698,7.59900015 201.948698,10.6922001 C201.948698,13.9108 204.268598,15.9799 207.340898,15.9799 C209.535398,15.9799 210.831198,15.0394 211.729898,13.9108 L209.765298,12.0716001 C209.138298,12.8658001 208.323198,13.2629 207.257298,13.2629 C205.940598,13.2629 205.125498,12.4478001 204.958298,11.3819001 L211.897098,11.3819001 Z M207.048298,7.87070014 C208.030598,7.87070014 208.720298,8.53950013 208.782998,9.39640012 L205.104598,9.39640012 C205.292698,8.56040013 205.940598,7.87070014 207.048298,7.87070014 L207.048298,7.87070014 Z M220.236198,5.38360019 C219.943598,5.36270019 219.797298,5.36270019 219.441998,5.36270019 C218.396998,5.36270019 217.456498,5.75980018 216.892198,6.42860017 L216.892198,5.50900019 L213.966198,5.50900019 L213.966198,15.75 L216.933998,15.75 L216.933998,11.4655001 C216.933998,9.29190012 218.125298,8.24690014 219.776398,8.24690014 L220.236198,8.24690014 L220.236198,5.38360019 Z" id="Homefinder" fill-opacity="0.5" fill="#FFFFFF" sketch:type="MSShapeGroup"></path>
        </g>
    </g>
</svg>