<?xml version="1.0" encoding="iso-8859-1"?>
<!-- Generator: Adobe Illustrator 17.1.0, SVG Export Plug-In . SVG Version: 6.00 Build 0)  -->
<!DOCTYPE svg PUBLIC "-//W3C//DTD SVG 1.1//EN" "http://www.w3.org/Graphics/SVG/1.1/DTD/svg11.dtd">
<svg version="1.1" id="Capa_1" xmlns="http://www.w3.org/2000/svg" xmlns:xlink="http://www.w3.org/1999/xlink" x="0px" y="0px"
	 viewBox="0 0 298.323 298.323" style="enable-background:new 0 0 298.323 298.323;" xml:space="preserve" fill="#fff">
<g>
	<path d="M280.833,249.344v-86.511c5-1.988,8.586-4.972,11.527-8.816c5.659-7.401,7.429-17.39,4.71-27.403l-15.625-57.096
		c-4.328-15.94-18.612-29.06-34.612-33.359V8.661c0-4.418-3.249-8-7.667-8h-32c-4.418,0-8.333,3.582-8.333,8v26h-100v-26
		c0-4.418-3.249-8-7.667-8h-32c-4.418,0-8.333,3.582-8.333,8v27.783c-15,4.566-29.086,17.465-33.323,33.073L2.095,126.614
		c-2.718,10.015-1.156,20.003,4.503,27.403c2.941,3.845,7.236,6.828,11.236,8.816v85.833C7.833,251.701,0,261.306,0,272.661
		c0,13.785,11.381,25,25.167,25h247c13.785,0,24.833-11.215,24.833-25C297,262.048,290.833,252.965,280.833,249.344z
		 M272.167,281.661h-247c-4.963,0-9-4.037-9-9s4.037-9,9-9h247c4.963,0,9,4.037,9,9S277.129,281.661,272.167,281.661z
		 M17.62,130.805l15.499-57.096c3.391-12.493,17.193-23.048,30.139-23.048h172.815c12.945,0,26.748,10.555,30.14,23.048l15.5,57.096
		c1.423,5.241,0.75,10.033-1.896,13.492c-2.646,3.459-7.093,5.364-12.523,5.364H32.04c-5.431,0-9.878-1.905-12.523-5.364
		C16.871,140.838,16.197,136.046,17.62,130.805z M82.834,34.661h-16v-18h16V34.661z M230.833,16.661v18h-16v-18H230.833z
		 M92.834,165.661v34h-27v-34H92.834z M188.833,165.661v34h-16v-9c0-4.418-3.249-8-7.667-8h-32c-4.418,0-8.333,3.582-8.333,8v9h-16
		v-34H188.833z M231.833,165.661v34h-27v-34H231.833z M204.833,215.661h27v32h-27V215.661z M188.833,247.661h-16v-32h16V247.661z
		 M156.833,247.661h-16v-49h16V247.661z M124.834,247.661h-16v-32h16V247.661z M92.834,215.661v32h-27v-32H92.834z M247.833,247.661
		v-32h17v32H247.833z M247.833,199.661v-34h17v34H247.833z M49.833,247.661h-16v-32h16V247.661z M33.833,165.661h16v34h-16V165.661z
		"/>
	<path d="M176.833,133.661c4.418,0,8-3.582,8-8v-10h44v10c0,4.418,3.582,8,8,8s8-3.582,8-8v-18c0-4.418-3.249-8-7.667-8h-6.333v-24
		c0-4.418-3.249-8-7.667-8h-32c-4.418,0-8.333,3.582-8.333,8v24h-5.667c-4.418,0-8.333,3.582-8.333,8v18
		C168.833,130.079,172.415,133.661,176.833,133.661z M198.833,83.661h16v16h-16V83.661z"/>
	<path d="M75.166,67.661c-4.418,0-8.333,3.582-8.333,8v24h-5.667c-4.418,0-8.333,3.582-8.333,8v18c0,4.418,3.582,8,8,8s8-3.582,8-8
		v-10h44v10c0,4.418,3.582,8,8,8c4.418,0,8-3.582,8-8v-18c0-4.418-3.249-8-7.667-8h-6.333v-24c0-4.418-3.249-8-7.667-8H75.166z
		 M98.834,99.661h-16v-16h16V99.661z"/>
</g>
<g>
</g>
<g>
</g>
<g>
</g>
<g>
</g>
<g>
</g>
<g>
</g>
<g>
</g>
<g>
</g>
<g>
</g>
<g>
</g>
<g>
</g>
<g>
</g>
<g>
</g>
<g>
</g>
<g>
</g>
</svg>
