<?xml version="1.0" encoding="iso-8859-1"?>
<!-- Generator: Adobe Illustrator 17.1.0, SVG Export Plug-In . SVG Version: 6.00 Build 0)  -->
<!DOCTYPE svg PUBLIC "-//W3C//DTD SVG 1.1//EN" "http://www.w3.org/Graphics/SVG/1.1/DTD/svg11.dtd">
<svg version="1.1" id="Capa_1" xmlns="http://www.w3.org/2000/svg" xmlns:xlink="http://www.w3.org/1999/xlink" x="0px" y="0px"
	 viewBox="0 0 299 299" style="enable-background:new 0 0 299 299;" xml:space="preserve" fill="#fff">
<g>
	<path d="M296.149,107.137L265.561,5.69C264.543,2.313,261.431,0,257.902,0H41.078c-3.528,0-6.641,2.313-7.659,5.69l-30.755,102
		c-0.73,2.423-0.272,5.049,1.237,7.081c1.51,2.031,3.891,3.229,6.422,3.229h7.334v173c0,4.418,3.915,8,8.333,8h248
		c4.418,0,7.667-3.582,7.667-8V118h7c0.008,0,0.015,0,0.02,0c4.419,0,8-3.582,8-8C296.677,108.991,296.49,108.026,296.149,107.137z
		 M265.657,283h-84v-60c0-4.418-3.249-8-7.667-8h-49c-4.418,0-8.333,3.582-8.333,8v60h-83V118h232V283z M132.657,231h33v52h-33V231z
		 M251.959,16l25.931,86H21.091l25.931-86H251.959z"/>
	<path d="M248.657,217c0-4.418-3.582-8-8-8h-33c-4.418,0-8,3.582-8,8v49c0,4.418,3.582,8,8,8h33c4.418,0,8-3.582,8-8V217z
		 M215.657,225h17v33h-17V225z"/>
	<path d="M99.657,217c0-4.418-3.582-8-8-8h-33c-4.418,0-8,3.582-8,8v49c0,4.418,3.582,8,8,8h33c4.418,0,8-3.582,8-8V217z
		 M66.657,225h17v33h-17V225z"/>
	<path d="M248.657,143c0-4.418-3.582-8-8-8h-33c-4.418,0-8,3.582-8,8v49c0,4.418,3.582,8,8,8h33c4.418,0,8-3.582,8-8V143z
		 M215.657,151h17v33h-17V151z"/>
	<path d="M99.657,143c0-4.418-3.582-8-8-8h-33c-4.418,0-8,3.582-8,8v49c0,4.418,3.582,8,8,8h33c4.418,0,8-3.582,8-8V143z
		 M66.657,151h17v33h-17V151z"/>
	<path d="M173.657,143c0-4.418-3.582-8-8-8h-33c-4.418,0-8,3.582-8,8v49c0,4.418,3.582,8,8,8h33c4.418,0,8-3.582,8-8V143z
		 M140.657,151h17v33h-17V151z"/>
</g>
<g>
</g>
<g>
</g>
<g>
</g>
<g>
</g>
<g>
</g>
<g>
</g>
<g>
</g>
<g>
</g>
<g>
</g>
<g>
</g>
<g>
</g>
<g>
</g>
<g>
</g>
<g>
</g>
<g>
</g>
</svg>
