<?xml version="1.0" encoding="iso-8859-1"?>
<!-- Generator: Adobe Illustrator 18.1.1, SVG Export Plug-In . SVG Version: 6.00 Build 0)  -->
<svg version="1.1" id="Capa_1" xmlns="http://www.w3.org/2000/svg" xmlns:xlink="http://www.w3.org/1999/xlink" x="0px" y="0px"
	 viewBox="0 0 18.037 18.037" style="enable-background:new 0 0 18.037 18.037;" xml:space="preserve" fill="#fff">
<g>
	<g>
		<g>
			<g>
				<g>
					<path  d="M15.544,8.65c-0.175-0.323-0.299-0.74-0.337-1.208c-0.086-1.069,0.304-1.97,0.871-2.016
						c0.089-0.007,0.175,0.015,0.261,0.047L17.711,0L2.898,5.334c0.252,0.699,0.537,1.392,0.897,2.07
						c1.915,3.6,5.034,6.136,8.593,7.414c0,0,1.078,0.445,1.564,0.186L15.544,8.65z M15.051,5.508
						c0.049,0.61-0.404,1.143-1.015,1.192c-0.61,0.048-1.143-0.404-1.192-1.015c-0.049-0.609,0.406-1.142,1.016-1.192
						C14.469,4.444,15.003,4.899,15.051,5.508z M7.451,6.59c-0.07-0.87,0.578-1.629,1.447-1.699c0.871-0.07,1.631,0.578,1.7,1.447
						c0.07,0.869-0.578,1.63-1.447,1.7C8.282,8.108,7.522,7.46,7.451,6.59z M10.399,10.245c-0.046-0.565,0.377-1.061,0.942-1.107
						c0.566-0.044,1.063,0.378,1.107,0.943c0.046,0.566-0.376,1.063-0.941,1.108C10.939,11.234,10.444,10.812,10.399,10.245z"/>
				</g>
			</g>
		</g>
		<g>
			<g>
				<g>
					<path d="M4.619,13.09C1.286,9.757,0.384,6.226,0.327,5.994l1.844-0.449L1.249,5.769l0.922-0.226
						c0.08,0.325,2.083,7.97,11.637,10.668l-0.517,1.826C9.356,16.926,6.57,15.043,4.619,13.09z"/>
				</g>
			</g>
		</g>
	</g>
</g>
<g>
</g>
<g>
</g>
<g>
</g>
<g>
</g>
<g>
</g>
<g>
</g>
<g>
</g>
<g>
</g>
<g>
</g>
<g>
</g>
<g>
</g>
<g>
</g>
<g>
</g>
<g>
</g>
<g>
</g>
</svg>
