<?xml version="1.0" encoding="iso-8859-1"?>
<!-- Generator: Adobe Illustrator 16.0.0, SVG Export Plug-In . SVG Version: 6.00 Build 0)  -->
<!DOCTYPE svg PUBLIC "-//W3C//DTD SVG 1.1//EN" "http://www.w3.org/Graphics/SVG/1.1/DTD/svg11.dtd">
<svg version="1.1" id="Capa_1" xmlns="http://www.w3.org/2000/svg" xmlns:xlink="http://www.w3.org/1999/xlink" x="0px" y="0px"
	 width="45.906px" height="45.906px" viewBox="0 0 45.906 45.906" style="enable-background:new 0 0 45.906 45.906;"
	 xml:space="preserve" fill="#fff">
<g>
	<g>
		<path d="M36.909,20.866h-1.229c1.964-1.762,3.197-4.316,3.197-7.155c0-4.213-2.667-7.802-6.483-9.1
			C31.37,2.02,28.86,0.22,25.897,0.22c-0.86,0-1.703,0.158-2.494,0.466C22.241,0.234,21.005,0,19.754,0
			c-3.584,0-6.812,1.864-8.618,4.816C6.57,5.14,2.953,8.96,2.953,13.606c0,2.81,1.321,5.315,3.374,6.93
			c0.001,0.001,0.002,0.001,0.002,0.002c0-0.001-0.001-0.001-0.002-0.002L7.559,42.08c0.122,2.141,1.894,3.826,4.038,3.826h18.64
			c2.145,0,3.916-1.683,4.037-3.822l0.127-2.205h2.508c3.336,0,6.045-2.693,6.045-6.029v-6.935
			C42.952,23.58,40.243,20.866,36.909,20.866z M13.954,41.764c-0.031,0.002-0.063,0.002-0.095,0.002
			c-0.788,0-1.449-0.612-1.499-1.407l-0.881-14.054c-0.068-1.101,0.786-1.571,1.454-1.595c0.747-0.024,1.478,0.54,1.521,1.276
			c0.221,3.707,0.905,14.184,0.905,14.184C15.411,40.998,14.782,41.711,13.954,41.764z M22.405,40.264
			c0,0.828-0.677,1.502-1.506,1.502c-0.83,0-1.507-0.674-1.507-1.502c0,0,0-10.541,0-14.055c0-0.54,0.211-1.502,1.518-1.502
			c0.829,0,1.495,0.673,1.495,1.502V40.264z M30.356,26.305l-0.884,14.054c-0.051,0.795-0.712,1.407-1.497,1.407
			c-0.031,0-0.063-0.002-0.097-0.004c-0.828-0.052-1.457-0.766-1.403-1.593l0.881-14.054c0.053-0.828,0.746-1.457,1.594-1.405
			C29.778,24.762,30.407,25.477,30.356,26.305z M29.258,20.326c-1.258,0-2.43-0.357-3.432-0.968
			c-0.73,1.402-2.182,2.369-3.871,2.369c-0.767,0-1.475-0.213-2.101-0.559c-0.796,1.172-2.138,1.939-3.66,1.939
			c-2.196,0-4.007-1.603-4.355-3.698c-0.025,0-0.049,0.004-0.074,0.004c-3.207,0-5.808-2.6-5.808-5.808
			c0-3.207,2.601-5.807,5.808-5.807c0.42,0,0.829,0.047,1.226,0.132c0.922-2.858,3.601-4.927,6.765-4.927
			c1.364,0,2.635,0.391,3.718,1.058c0.674-0.518,1.508-0.838,2.424-0.838c2.174,0,3.934,1.74,3.982,3.903
			c3.362,0.313,5.993,3.14,5.993,6.583C35.875,17.364,32.914,20.326,29.258,20.326z M38.952,33.85c0,1.127-0.918,2.03-2.043,2.03
			h-2.28l0.63-11.014h1.65c1.125,0,2.043,0.923,2.043,2.049V33.85z"/>
	</g>
</g>
<g>
</g>
<g>
</g>
<g>
</g>
<g>
</g>
<g>
</g>
<g>
</g>
<g>
</g>
<g>
</g>
<g>
</g>
<g>
</g>
<g>
</g>
<g>
</g>
<g>
</g>
<g>
</g>
<g>
</g>
</svg>
