<?xml version="1.0" encoding="iso-8859-1"?>
<!-- Generator: Adobe Illustrator 17.1.0, SVG Export Plug-In . SVG Version: 6.00 Build 0)  -->
<!DOCTYPE svg PUBLIC "-//W3C//DTD SVG 1.1//EN" "http://www.w3.org/Graphics/SVG/1.1/DTD/svg11.dtd">
<svg version="1.1" id="Capa_1" xmlns="http://www.w3.org/2000/svg" xmlns:xlink="http://www.w3.org/1999/xlink" x="0px" y="0px"
	 viewBox="0 0 297.333 297.333" style="enable-background:new 0 0 297.333 297.333;" xml:space="preserve" fill="#fff">
<g>
	<path d="M289.333,211.284h-16.547c4.914-6.995,7.547-16.109,7.547-27c0-0.409-0.009-0.834-0.022-1.27
		c-0.003-0.089-0.008-0.181-0.012-0.271c-0.014-0.371-0.031-0.751-0.055-1.14c-0.004-0.057-0.007-0.113-0.011-0.17
		c-0.468-7.461-2.666-18.237-6.567-32.221c-0.114-0.414-0.23-0.828-0.347-1.244c-0.007-0.023-0.014-0.047-0.02-0.069
		c-9.54-33.946-25.624-75.146-27.588-79.023c-7.37-14.553-22.076-23.593-38.38-23.593h-164c-23.71,0-43.333,19.29-43.333,43v32.667
		v63.333c0,23.71,19.623,43,43.333,43h74.238c3.574,14.211,16.457,24.766,31.762,24.766s28.188-10.555,31.762-24.766h108.238
		c4.418,0,8-3.582,8-8S293.751,211.284,289.333,211.284z M149.333,236.049c-9.236,0-16.75-7.514-16.75-16.75
		c0-9.236,7.514-16.75,16.75-16.75c9.236,0,16.75,7.514,16.75,16.75C166.083,228.536,158.569,236.049,149.333,236.049z
		 M43.333,61.284h164c10.239,0,19.476,5.846,24.093,14.961c1.018,2.094,7.174,18.039,13.861,37.039H16v-25
		C16,73.396,28.445,61.284,43.333,61.284z M116,129.284v16H66v-16H116z M16,129.284h34v24c0,4.418,3.915,8,8.333,8h66
		c4.418,0,7.667-3.582,7.667-8v-24h34v62.033c-5-3.023-10.613-4.768-16.833-4.768c-15.294,0-28.002,10.539-31.587,24.734H43.333
		c-14.888,0-27.333-12.112-27.333-27V129.284z M182,129.284h35v82h-35V129.284z M233,129.284h17.724
		c8.796,26,13.609,46.131,13.609,55.166c0,18.168-8.832,26.834-27,26.834H233V129.284z"/>
</g>
<g>
</g>
<g>
</g>
<g>
</g>
<g>
</g>
<g>
</g>
<g>
</g>
<g>
</g>
<g>
</g>
<g>
</g>
<g>
</g>
<g>
</g>
<g>
</g>
<g>
</g>
<g>
</g>
<g>
</g>
</svg>
