<?xml version="1.0" encoding="iso-8859-1"?>
<!-- Generator: Adobe Illustrator 18.0.0, SVG Export Plug-In . SVG Version: 6.00 Build 0)  -->
<!DOCTYPE svg PUBLIC "-//W3C//DTD SVG 1.1//EN" "http://www.w3.org/Graphics/SVG/1.1/DTD/svg11.dtd">
<svg version="1.1" id="Capa_1" xmlns="http://www.w3.org/2000/svg" xmlns:xlink="http://www.w3.org/1999/xlink" x="0px" y="0px"
	 viewBox="0 0 493.656 493.656" style="enable-background:new 0 0 493.656 493.656;" xml:space="preserve" fill="#fff">
<path id="glass"  d="M394.151,126.093c0-33.43-4.751-65.709-14.114-95.924C374.428,12.136,357.961,0,339.06,0
	H154.597c-18.911,0-35.377,12.136-40.982,30.183c-9.363,30.201-14.109,62.48-14.109,95.91c0,55.114,19.985,100.829,36.75,129.454
	c19.136,32.708,23.138,72.01,10.993,107.834c-4.566,13.44-6.783,26.023-6.783,38.498c0,20.749,2.628,40.968,7.804,60.095
	c5.04,18.648,22.067,31.683,41.406,31.683h114.306c19.326,0,36.357-13.034,41.402-31.683c5.176-19.127,7.804-39.347,7.804-60.095
	c0-12.474-2.217-25.057-6.774-38.48c-12.154-35.842-8.147-75.158,10.993-107.834C374.161,226.922,394.151,181.207,394.151,126.093z
	 M145.053,39.943c1.305-4.214,5.135-7.028,9.543-7.028H339.06c4.403,0,8.238,2.814,9.539,7.009
	c8.382,27.054,12.632,56.031,12.632,86.168c0,1.432-0.158,2.796-0.185,4.209H193.587c-0.849,6.883-1.499,13.825-1.499,20.992
	c0,26.231,9.692,48.316,17.822,62.205c4.589,7.845,1.947,17.939-5.898,22.537c-2.61,1.509-5.474,2.249-8.292,2.249
	c-5.659,0-11.165-2.926-14.227-8.165c-14.602-24.962-22.325-52.223-22.325-78.825c0-7.104,0.483-14.078,1.197-20.992h-27.758
	c-0.022-1.414-0.185-2.777-0.185-4.209C132.421,95.956,136.671,66.979,145.053,39.943z"/>
<g>
</g>
<g>
</g>
<g>
</g>
<g>
</g>
<g>
</g>
<g>
</g>
<g>
</g>
<g>
</g>
<g>
</g>
<g>
</g>
<g>
</g>
<g>
</g>
<g>
</g>
<g>
</g>
<g>
</g>
</svg>
