<?xml version="1.0" encoding="iso-8859-1"?>
<!-- Generator: Adobe Illustrator 17.1.0, SVG Export Plug-In . SVG Version: 6.00 Build 0)  -->
<!DOCTYPE svg PUBLIC "-//W3C//DTD SVG 1.1//EN" "http://www.w3.org/Graphics/SVG/1.1/DTD/svg11.dtd">
<svg version="1.1" id="Capa_1" xmlns="http://www.w3.org/2000/svg" xmlns:xlink="http://www.w3.org/1999/xlink" x="0px" y="0px"
	 viewBox="0 0 297 297" style="enable-background:new 0 0 297 297;" xml:space="preserve" fill="#fff">
<g>
	<path d="M75,115.5c-4.418,0-8,3.582-8,8v17c0,4.418,3.582,8,8,8s8-3.582,8-8v-17C83,119.082,79.418,115.5,75,115.5z"/>
	<path d="M112,115.5c-4.418,0-8,3.582-8,8v17c0,4.418,3.582,8,8,8s8-3.582,8-8v-17C120,119.082,116.418,115.5,112,115.5z"/>
	<path d="M186,148.5c4.418,0,8-3.582,8-8v-17c0-4.418-3.582-8-8-8s-8,3.582-8,8v17C178,144.918,181.582,148.5,186,148.5z"/>
	<path d="M223,148.5c4.418,0,8-3.582,8-8v-17c0-4.418-3.582-8-8-8s-8,3.582-8,8v17C215,144.918,218.582,148.5,223,148.5z"/>
	<path d="M149,115.5c-4.418,0-8,3.582-8,8v17c0,4.418,3.582,8,8,8s8-3.582,8-8v-17C157,119.082,153.418,115.5,149,115.5z"/>
	<path d="M75,164.5c-4.418,0-8,3.582-8,8v17c0,4.418,3.582,8,8,8s8-3.582,8-8v-17C83,168.082,79.418,164.5,75,164.5z"/>
	<path d="M112,164.5c-4.418,0-8,3.582-8,8v17c0,4.418,3.582,8,8,8s8-3.582,8-8v-17C120,168.082,116.418,164.5,112,164.5z"/>
	<path d="M186,197.5c4.418,0,8-3.582,8-8v-17c0-4.418-3.582-8-8-8s-8,3.582-8,8v17C178,193.918,181.582,197.5,186,197.5z"/>
	<path d="M223,197.5c4.418,0,8-3.582,8-8v-17c0-4.418-3.582-8-8-8s-8,3.582-8,8v17C215,193.918,218.582,197.5,223,197.5z"/>
	<path d="M149,164.5c-4.418,0-8,3.582-8,8v17c0,4.418,3.582,8,8,8s8-3.582,8-8v-17C157,168.082,153.418,164.5,149,164.5z"/>
	<path d="M275.759,246.73c5.34-5.258,8.698-12.562,8.698-20.628c0-13.027-8.457-24.071-20.457-27.702V97.5h9.249
		c2.734,0,5.279-1.396,6.748-3.702c1.469-2.307,1.657-5.203,0.501-7.681l-37.798-81c-1.314-2.816-4.142-4.617-7.25-4.617H64.347
		c-3.075,0-5.878,1.763-7.211,4.534l-38.929,81c-1.191,2.479-1.026,5.396,0.437,7.725c1.465,2.328,4.023,3.741,6.773,3.741H34
		v100.635c-12,3.324-21.268,14.601-21.268,27.968c0,8.13,3.038,15.483,8.45,20.749C9.367,248.836,0,259.13,0,271.5v17
		c0,4.418,4.416,8,8.834,8h280.998c4.418,0,7.168-3.582,7.168-8v-17C297,258.85,287.968,248.37,275.759,246.73z M205,280.5v-18
		h67.832c4.963,0,8.168,4.037,8.168,9v9H205z M139,240.33c0-5.529,4.173-9.861,9.5-9.861c5.327,0,9.5,4.332,9.5,9.861v41.17h-19
		V240.33z M148.5,214.469c-14.299,0-25.5,11.359-25.5,25.861v40.17h-15v-26c0-4.418-3.748-8-8.166-8H62.41
		c5.202-5.239,8.255-12.449,8.255-20.398C70.665,213.075,62,202.031,50,198.4V97.5h55.113c2.36,0,4.601-1.042,6.12-2.849
		l38.478-45.713l37.671,45.653c1.52,1.842,3.783,2.908,6.171,2.908H248v100.635c-12,3.324-21.268,14.601-21.268,27.968
		c0,7.948,3.386,15.158,8.588,20.398h-37.488c-4.418,0-8.832,3.582-8.832,8v26h-15v-40.17
		C174,225.828,162.799,214.469,148.5,214.469z M41.865,213.135c7.15,0,12.967,5.817,12.967,12.968
		c0,7.15-5.816,12.966-12.967,12.966s-12.967-5.816-12.967-12.966C28.898,218.952,34.715,213.135,41.865,213.135z M16,271.5
		c0-4.963,4.871-9,9.834-9H91v18H16V271.5z M230.355,16.5l30.332,65h-63.364l-41.38-50.12c-1.512-1.831-3.758-2.88-6.132-2.88
		c-0.013,0-0.026,0-0.039,0c-2.359,0-4.6,1.014-6.12,2.82L101.391,81.5H38.138l31.24-65H230.355z M268.832,226.102
		c0,7.15-5.816,12.966-12.967,12.966s-12.967-5.816-12.967-12.966c0-7.15,5.816-12.968,12.967-12.968
		S268.832,218.952,268.832,226.102z"/>
</g>
<g>
</g>
<g>
</g>
<g>
</g>
<g>
</g>
<g>
</g>
<g>
</g>
<g>
</g>
<g>
</g>
<g>
</g>
<g>
</g>
<g>
</g>
<g>
</g>
<g>
</g>
<g>
</g>
<g>
</g>
</svg>
