<?xml version="1.0" encoding="utf-8"?>
<!-- Generator: Adobe Illustrator 18.1.1, SVG Export Plug-In . SVG Version: 6.00 Build 0)  -->
<svg version="1.1" id="Layer_1" xmlns="http://www.w3.org/2000/svg" xmlns:xlink="http://www.w3.org/1999/xlink" x="0px" y="0px"
	 viewBox="0 0 2267.7 5952.8" enable-background="new 0 0 2267.7 5952.8" xml:space="preserve" width="100px">
<g>
	<path fill="#FFFFFF" d="M2845.3,2984.1c68,0,122.5,52.2,122.5,120.2c0,68-52.2,120.2-122.5,120.2c-68,0-122.5-49.9-122.5-120.2
		S2777.2,2984.1,2845.3,2984.1z M2845.3,3163.3c31.7,0,54.4-24.9,54.4-59c0-34-22.7-59-54.4-59c-31.7,0-54.4,24.9-54.4,59
		C2793.1,3138.3,2815.8,3163.3,2845.3,3163.3z"/>
</g>
<g>
	<path fill="#FFFFFF" d="M1722.7,2984.1c68,0,122.5,52.2,122.5,120.2c0,68-52.2,120.2-122.5,120.2c-68,0-122.5-49.9-122.5-120.2
		S1652.4,2984.1,1722.7,2984.1z M1722.7,3163.3c31.7,0,54.4-24.9,54.4-59c0-34-22.7-59-54.4-59s-54.4,24.9-54.4,59
		C1668.3,3138.3,1691,3163.3,1722.7,3163.3z"/>
</g>
<g>
	<path fill="#FFFFFF" d="M2439.3,3142.9c22.7,0,40.8,18.1,40.8,40.8c0,22.7-18.1,40.8-40.8,40.8s-40.8-18.1-40.8-40.8
		C2398.5,3163.3,2416.7,3142.9,2439.3,3142.9z"/>
</g>
<g>
	<path fill="#FFFFFF" d="M700,2895.7h68v63.5h-68V2895.7z M700,2993.2h68v231.3h-68V2993.2z"/>
</g>
<g>
	<path fill="#FFFFFF" d="M2591.3,2895.7h68v63.5h-68V2895.7z M2591.3,2993.2h68v231.3h-68V2993.2z"/>
</g>
<g>
	<path fill="#FFFFFF" d="M1421.1,3231.3c-24.9,0-47.6-9.1-59-20.4v106.6h-68v-319.7h65.8v15.9c11.3-11.3,34-22.7,61.2-22.7
		c63.5,0,115.7,45.4,115.7,120.2C1534.5,3186,1484.6,3231.3,1421.1,3231.3z M1414.3,3172.3c31.7,0,54.4-24.9,54.4-61.2
		c0-36.3-22.7-61.2-54.4-61.2c-31.7,0-54.4,24.9-54.4,61.2C1359.9,3147.4,1382.6,3172.3,1414.3,3172.3z"/>
</g>
<g>
	<path fill="#FFFFFF" d="M1976.7,3224.5h-68v-231.3h131.5v61.2h-65.8L1976.7,3224.5L1976.7,3224.5z"/>
</g>
<g>
	<path fill="#FFFFFF" d="M2158.1,3224.5v-167.8h-38.6v-61.2h38.6v-65.8h72.6v63.5h61.2v61.2h-65.8V3161h63.5v61.2L2158.1,3224.5
		L2158.1,3224.5z"/>
</g>
<g>
	<path fill="#FFFFFF" d="M1205.7,3224.5h-68v-167.8h-74.8v167.8h-68v-167.8H920v167.8h-68v-231.3h351.5L1205.7,3224.5L1205.7,3224.5
		z"/>
</g>
</svg>
