<?xml version="1.0" encoding="UTF-8" standalone="no"?>
<svg width="99px" height="19px" viewBox="0 0 99 19" version="1.1" xmlns="http://www.w3.org/2000/svg" xmlns:xlink="http://www.w3.org/1999/xlink" xmlns:sketch="http://www.bohemiancoding.com/sketch/ns">
    <!-- Generator: Sketch 3.4.1 (15681) - http://www.bohemiancoding.com/sketch -->
    <title>import-logo</title>
    <desc>Created with Sketch.</desc>
    <defs>
        <path id="path-1" d="M0,0.396039604 L99.0138614,0.396039604 L99.0138614,18.8118812 L0,18.8118812"></path>
        <path id="path-3" d="M0,0.396039604 L99.0138614,0.396039604 L99.0138614,18.8118812 L0,18.8118812 L0,0.396039604 Z"></path>
    </defs>
    <g id="Page-1" stroke="none" stroke-width="1" fill="none" fill-rule="evenodd" sketch:type="MSPage">
        <g id="import-logo" sketch:type="MSLayerGroup">
            <g id="Group-3">
                <mask id="mask-2" sketch:name="Clip 2" fill="white">
                    <use xlink:href="#path-1"></use>
                </mask>
                <g id="Clip-2"></g>
                <path d="M93.6658416,12.0793069 C95.05,12.0793069 96.0410891,10.9921782 96.0410891,9.50306931 C96.0410891,8.01891089 95.05,6.92683168 93.6658416,6.92683168 C92.2816832,6.92683168 91.2905941,8.0149505 91.2905941,9.50306931 C91.3866337,10.9882178 92.3777228,12.0793069 93.6658416,12.0793069 M93.6658416,4.25554455 C96.6351485,4.25554455 99.0143564,6.53475248 99.0143564,9.50306931 C99.0143564,12.4723762 96.7351485,14.7515842 93.6658416,14.7515842 C90.6965347,14.7515842 88.3173267,12.5723762 88.3173267,9.50306931 C88.3173267,6.43376238 90.6925743,4.25554455 93.6658416,4.25554455" id="Fill-1" fill="#FFFFFF" sketch:type="MSShapeGroup" mask="url(#mask-2)"></path>
            </g>
            <path d="M44.6520792,12.0793069 C46.0362376,12.0793069 47.0273267,10.9921782 47.0273267,9.50306931 C47.0273267,8.01891089 46.0362376,6.92683168 44.6520792,6.92683168 C43.2679208,6.92683168 42.2768317,8.0149505 42.2768317,9.50306931 C42.2768317,10.9882178 43.2679208,12.0793069 44.6520792,12.0793069 M44.6520792,4.25554455 C47.6213861,4.25554455 50.0005941,6.53475248 50.0005941,9.50306931 C50.0005941,12.4723762 47.7213861,14.7515842 44.6520792,14.7515842 C41.6827723,14.7515842 39.3035644,12.5723762 39.3035644,9.50306931 C39.3035644,6.43376238 41.5827723,4.25554455 44.6520792,4.25554455" id="Fill-4" fill="#FFFFFF" sketch:type="MSShapeGroup"></path>
            <path d="M75.939505,11.1887129 C76.9305941,11.1887129 77.7206931,11.9788119 77.7206931,12.969901 C77.7206931,13.9609901 76.9305941,14.7510891 75.939505,14.7510891 C74.9484158,14.7510891 74.1583168,13.9609901 74.1583168,12.969901 C74.1583168,12.079802 74.9523762,11.1887129 75.939505,11.1887129" id="Fill-6" fill="#FFFFFF" sketch:type="MSShapeGroup"></path>
            <mask id="mask-4" sketch:name="Clip 9" fill="white">
                <use xlink:href="#path-3"></use>
            </mask>
            <g id="Clip-9"></g>
            <path d="M0,4.65247525 L2.96930693,4.65247525 L2.96930693,14.7514851 L0,14.7514851 L0,4.65247525 Z M0,0.396039604 L2.96930693,0.396039604 L2.96930693,3.16831683 L0,3.16831683 L0,0.396039604 Z" id="Fill-8" fill="#FFFFFF" sketch:type="MSShapeGroup" mask="url(#mask-4)"></path>
            <path d="M82.5762376,4.65247525 L85.5455446,4.65247525 L85.5455446,14.7514851 L82.5762376,14.7514851 L82.5762376,4.65247525 Z M82.5762376,0.396039604 L85.5455446,0.396039604 L85.5455446,3.16831683 L82.5762376,3.16831683 L82.5762376,0.396039604 Z" id="Fill-10" fill="#FFFFFF" sketch:type="MSShapeGroup" mask="url(#mask-4)"></path>
            <path d="M31.1870297,12.4722772 C32.5711881,12.4722772 33.5622772,11.3851485 33.5622772,9.8 C33.5622772,8.21485149 32.5711881,7.12772277 31.1870297,7.12772277 C29.8028713,7.12772277 28.8117822,8.21485149 28.8117822,9.8 C28.8117822,11.3851485 29.8028713,12.4722772 31.1870297,12.4722772 M31.4840594,15.0485149 C30.3969307,15.0485149 29.4058416,14.650495 28.9078218,14.1574257 L28.9078218,18.8118812 L25.9385149,18.8118812 L25.9385149,4.85346535 L28.8117822,4.85346535 L28.8117822,5.54752475 C29.3048515,5.05445545 30.2959406,4.55643564 31.4840594,4.55643564 C34.2563366,4.55643564 36.5355446,6.53861386 36.5355446,9.8049505 C36.4355446,13.070297 34.2563366,15.0485149 31.4840594,15.0485149" id="Fill-11" fill="#FFFFFF" sketch:type="MSShapeGroup" mask="url(#mask-4)"></path>
            <path d="M55.7418812,14.7513861 L52.7725743,14.7513861 L52.7725743,4.65237624 L58.5141584,4.65237624 L58.5141584,7.32465347 L55.6418812,7.32465347 L55.7418812,14.7513861 Z" id="Fill-12" fill="#FFFFFF" sketch:type="MSShapeGroup" mask="url(#mask-4)"></path>
            <path d="M63.6619802,14.7513861 L63.6619802,7.42465347 L61.9768317,7.42465347 L61.9768317,4.75336634 L63.6619802,4.75336634 L63.6619802,1.88009901 L66.8312871,1.88009901 L66.8312871,4.65237624 L69.5035644,4.65237624 L69.5035644,7.32465347 L66.6312871,7.32465347 L66.6312871,11.9791089 L69.4035644,11.9791089 L69.4035644,14.6513861 L63.6619802,14.7513861 Z" id="Fill-13" fill="#FFFFFF" sketch:type="MSShapeGroup" mask="url(#mask-4)"></path>
            <path d="M22.0793069,14.7513861 L19.11,14.7513861 L19.11,7.42465347 L15.8446535,7.42465347 L15.8446535,14.7513861 L12.8753465,14.7513861 L12.8753465,7.42465347 L9.6050495,7.42465347 L9.6050495,14.7513861 L6.63673267,14.7513861 L6.63673267,4.65237624 L21.9832673,4.65237624 L22.0793069,14.7513861 Z" id="Fill-14" fill="#FFFFFF" sketch:type="MSShapeGroup" mask="url(#mask-4)"></path>
        </g>
    </g>
</svg>